<?xml version="1.0" encoding="UTF-8"?>
<svg id="Layer_1" data-name="Layer 1" xmlns="http://www.w3.org/2000/svg" viewBox="0 0 300 63.04">
  <defs>
    <style>
      .cls-1 {
        fill: #6bc4e8;
      }

      .cls-2 {
        fill: #fff;
      }

      .cls-3 {
        fill: #231f20;
      }

      .cls-4 {
        fill: #93d500;
      }

      .cls-5 {
        fill: #98989a;
      }
    </style>
  </defs>
  <g>
    <g>
      <g>
        <path class="cls-3" d="M2.54,57.25c.58,0,.58-.81.58-2.89-.23-.23-.81-1.16-1.39-1.97-.81-1.16-1.39-1.97-1.73-2.08v-.12h2.54v.12c-.12,0-.35.12-.35.35s.46.93.93,1.62c.46.69.93,1.39,1.04,1.5.46-.69,1.5-2.54,1.5-3.01,0-.35-.23-.35-.35-.35v-.12h1.97v.12c-.12,0-.23.12-.46.35-.12.12-.69,1.04-1.27,1.85-.58.81-1.04,1.62-1.16,1.73,0,2.08,0,2.89.58,2.89v.12h-1.27c-.35-.12-.69-.12-1.16-.12h0Z"/>
        <path class="cls-3" d="M8.1,50.31c.58,0,.58,1.04.58,3.47s0,3.35-.58,3.47v.12h3.82c.69,0,1.27,0,1.5.12.12-.58.35-1.16.58-1.62l-.23-.12c-.35.58-.93,1.16-2.78,1.16-.35,0-.58,0-.93-.12v-3.01h.81c1.5,0,1.62.46,1.62.81h.23v-.81c0-.35,0-.81.12-1.16h-.23c0,.46-.23.69-1.73.69h-.81c0-1.16,0-2.2.12-2.54h.93c1.5,0,2.2.35,2.2,1.04h.23v-.23c0-.69.12-1.04.23-1.39-.69.12-2.43.12-4.28.12h-.58c-.35,0-.46,0-.81,0h0Z"/>
        <path class="cls-3" d="M15.27,57.25h1.97v-.12c-.12,0-.35-.12-.35-.35-.23-.93-.23-4.4-.23-4.63v-.35h0c.46.58,4.4,4.97,4.86,5.44h.81v-.58c0-2.43.23-5.44.46-6.01.12-.23.23-.35.35-.35v-.12h-1.97v.12c.23,0,.35.23.46.46.23.81.23,3.01.23,3.59v1.39c-1.16-1.27-3.82-4.05-4.63-5.44h-2.2v.12c.35,0,1.04.81,1.04.81,0,.12.12.35.12.69,0,.81-.12,4.63-.46,5.09-.23.12-.35.12-.46.23h0Z"/>
        <path class="cls-3" d="M24.52,50.31c.58,0,.58,1.04.58,3.47s0,3.35-.58,3.47v.12h3.82c.69,0,1.27,0,1.5.12.12-.58.35-1.16.58-1.62l-.23-.12c-.35.58-.93,1.16-2.78,1.16-.35,0-.58,0-.93-.12v-3.01h.81c1.5,0,1.62.46,1.62.81h.23v-.81c0-.35,0-.81.12-1.16h-.35c0,.46-.23.69-1.73.69h-.81c0-1.16.12-2.2.12-2.54h.93c1.5,0,2.2.35,2.2,1.04h.23v-.23c0-.69.12-1.04.23-1.39-.69.12-2.43.12-4.28.12h-.58c-.23,0-.46,0-.69,0h0Z"/>
        <path class="cls-3" d="M34.7,54.01c-.46,0-.81,0-1.04-.12,0-.35,0-2.89.12-3.24.23-.12.46-.12.69-.12,1.16,0,1.97.58,1.97,1.85-.12,1.04-.58,1.62-1.73,1.62M31.81,57.25h2.54v-.12c-.58,0-.58-1.04-.58-2.78h.81c1.39,0,3.35-.58,3.35-2.54,0-1.5-1.04-1.85-2.31-1.85-.23,0-.69,0-1.16.12-.46,0-1.04.12-1.5.12h-.93v.12c.58,0,.58,1.04.58,3.47-.23,2.43-.23,3.35-.81,3.47h0Z"/>
        <path class="cls-3" d="M42.56,56.56c-1.39,0-2.66-.93-2.66-3.24,0-.93.35-1.85.69-2.08.23-.23.93-.35,1.27-.35,1.97,0,2.66.93,2.66,3.01,0,1.16-.23,2.08-.58,2.43-.23.12-.93.23-1.39.23M41.75,57.37c1.5,0,4.28-.93,4.28-4.05,0-2.54-1.5-3.24-3.12-3.24-1.39,0-3.35.93-3.59,1.16-.58.58-.81,1.73-.81,2.43,0,2.43,1.27,3.7,3.24,3.7"/>
        <path class="cls-3" d="M48.69,57.25h2.54v-.12c-.58,0-.58-.93-.58-2.89.12-.12.58-.93,1.16-1.73s1.16-1.73,1.27-1.85c.23-.23.35-.23.46-.35v-.12h-1.97v.12c.12,0,.35.12.35.35,0,.46-.93,2.31-1.39,3.01-.12-.12-.58-.81-1.04-1.5s-.93-1.39-.93-1.62.23-.23.35-.35v-.12h-2.54v.12c.35,0,.93.93,1.62,1.97.58.81,1.27,1.73,1.39,1.97-.12,2.2-.12,3.01-.69,3.12h0Z"/>
        <path class="cls-3" d="M56.33,51.35c.12.35.93,2.31,1.04,2.54h-1.85c0-.35.69-2.08.81-2.54M59.8,56.44c-.35-.69-1.16-2.66-1.85-4.51-.35-.93-.46-1.5-.58-1.73h-1.62v.12c.12.12.23.23.23.35,0,.35-.23.93-.58,1.73-.58,1.27-1.04,2.78-1.73,3.93-.35.58-.58.81-.81.93v.12h1.85v-.12c-.12,0-.35-.12-.35-.35,0-.35.58-2.08.69-2.43h2.31c.23.46.81,2.08,1.04,2.89h1.97v-.12c-.23-.12-.35-.35-.58-.81"/>
      </g>
      <g>
        <path class="cls-3" d="M3.82,60.61c0-.35,0-.69.12-1.04.12-.35.23-.58.46-.93h.35c-.12.23-.23.58-.35.93s-.12.69-.12,1.04,0,.69.12,1.04c.12.35.23.58.35.93h-.35c-.35-.58-.58-1.16-.58-1.97"/>
        <path class="cls-3" d="M6.13,59.45h.23c.35,0,.58.12.69.35.23.23.23.46.23.93,0,.35-.12.69-.23.93-.23.23-.46.35-.69.35h-.23v-2.54ZM5.55,59.1c0,.12.12.23.12.35v2.31c0,.12,0,.23-.12.35h.69c.46,0,.81-.12,1.04-.46.23-.23.46-.69.46-1.16s-.12-.93-.46-1.16c-.23-.23-.58-.35-1.04-.35h-.69v.12Z"/>
        <path class="cls-3" d="M8.91,59.45h.46c.12,0,.23,0,.35.12l.23-.46h-1.73c0,.12,0,.23.12.35v2.31c0,.12,0,.23-.12.35h1.62l.12-.46c-.23.12-.58.23-.93.23h-.35v-1.04h.35c.12,0,.23,0,.35.12l.23-.46h-.93v-.93h.23"/>
        <path class="cls-3" d="M10.99,59.45h.46c.12,0,.23,0,.35.12l.23-.46h-1.73c0,.12,0,.23.12.35v2.31c0,.12,0,.23-.12.35h1.62l.12-.58c-.23.12-.58.23-.93.23h-.35v-1.04h.35c.12,0,.23,0,.35.12l.23-.46h-.93v-.93h.23"/>
        <path class="cls-3" d="M13.76,61.53l.93-1.39v1.73c0,.12,0,.23-.12.35h.69c0-.12-.12-.23-.12-.35v-2.43c.12-.12.23-.23.35-.35h-.69q0,.12-.12.23c0,.12-.12.23-.12.23l-.69,1.16-.69-1.16c-.12-.12-.12-.23-.12-.23,0-.12-.12-.23-.12-.23h-.69c.12.12.23.23.35.35v2.43c0,.12,0,.23-.12.35h.69c0-.12-.12-.23-.12-.35v-1.73l.69,1.39Z"/>
        <path class="cls-3" d="M16.42,59.45h.46c.12,0,.23,0,.35.12l.23-.46h-1.73c0,.12,0,.23.12.35v2.31c0,.12,0,.23-.12.35h1.62l.12-.58c-.23.12-.58.23-.93.23h-.35v-1.04h.35c.12,0,.23,0,.35.12l.23-.46h-1.04v-.93h.35"/>
        <path class="cls-3" d="M18.39,59.45h.23c.35,0,.58.12.69.35.23.23.23.46.23.93,0,.35-.12.69-.23.93-.23.23-.46.35-.69.35h-.23s0-2.54,0-2.54ZM17.81,59.1c0,.12.12.23.12.35v2.31c0,.12,0,.23-.12.35h.69c.46,0,.81-.12,1.04-.46.23-.23.46-.69.46-1.16s-.12-.93-.46-1.16c-.23-.23-.58-.35-1.04-.35h-.69v.12Z"/>
        <path class="cls-3" d="M22.44,59.45h.46c.12,0,.23,0,.35.12l.12-.46h-2.08l-.12.46c.12,0,.12-.12.35-.12h.46v2.31c0,.12,0,.23-.12.35h.69c0-.12,0-.23-.12-.35v-2.31"/>
        <path class="cls-3" d="M24.87,59.45c.35,0,.58.12.69.35.23.23.23.58.23.93s-.12.69-.23.93c-.23.23-.46.35-.69.35-.35,0-.58-.12-.69-.35-.23-.23-.23-.58-.23-.93s.12-.69.23-.93c.12-.23.35-.35.69-.35M24.29,59.1c-.23.12-.35.23-.46.35-.23.35-.46.69-.46,1.16s.12.93.46,1.16c.12.12.23.23.46.35.23.12.35.12.58.12s.35,0,.58-.12.35-.23.46-.35c.23-.35.46-.69.46-1.16s-.12-.93-.46-1.16c-.12-.12-.23-.23-.46-.35-.23-.12-.35-.12-.58-.12-.23.12-.35.12-.58.12"/>
        <path class="cls-3" d="M28.34,59.45c.35,0,.46.12.46.46,0,.12,0,.23-.12.35s-.23.12-.35.12h-.23v-.93h.23M29.03,59.34c-.12-.12-.35-.23-.69-.23h-.69c0,.12,0,.23.12.35v2.31c0,.12,0,.23-.12.35h.69c.35,0,.58-.12.69-.23.23-.12.23-.35.23-.69,0-.23,0-.35-.12-.46-.12-.12-.23-.23-.35-.23.12,0,.23-.12.35-.23.12-.12.12-.23.12-.46,0-.12,0-.35-.23-.46M28.8,61.65c-.12.12-.23.12-.46.12h-.23v-1.04h.23c.23,0,.35,0,.46.12s.12.23.12.35c0,.23,0,.46-.12.46"/>
        <path class="cls-3" d="M30.42,59.45h.46c.12,0,.23,0,.35.12l.23-.46h-1.73c0,.12.12.23.12.35v2.31c0,.12,0,.23-.12.35h1.62l.12-.58c-.23.12-.58.23-.93.23h-.35v-1.04h.35c.12,0,.23,0,.35.12l.23-.46h-1.04v-.93h.35"/>
        <path class="cls-3" d="M34.93,61.3c0,.12-.12.23-.23.35s-.35.12-.46.12c-.23,0-.35-.12-.58-.23-.12-.12-.23-.35-.23-.58v-1.62c0-.12,0-.23.12-.35h-.69c0,.12,0,.23.12.35v1.62c0,.35.12.58.23.81.23.23.46.35.69.35.12,0,.35,0,.46-.12s.23-.12.35-.23v.35h.58c0-.12,0-.23-.12-.35v-2.31c0-.12,0-.23.12-.35h-.69c0,.12,0,.23.12.35v1.85"/>
        <path class="cls-3" d="M37.71,61.76c0,.12.12.12.12.23s.12.12.12.23h.58c0-.12-.12-.23-.12-.35v-2.31c0-.12,0-.23.12-.35h-.69c0,.12,0,.23.12.35v1.85l-1.27-1.73c0-.12-.12-.12-.12-.23s-.12-.12-.12-.23h-.58c.12.12.23.23.35.35v2.43c0,.12,0,.23-.12.35h.69c0-.12-.12-.23-.12-.35v-1.85l1.04,1.62Z"/>
        <path class="cls-3" d="M39.56,59.91v-.46c0-.12,0-.23.12-.35h-.69c0,.12,0,.23.12.35v2.31c0,.12,0,.23-.12.35h.69c0-.12-.12-.23-.12-.35v-1.85"/>
        <path class="cls-3" d="M40.83,59.68c-.12-.23-.12-.46-.12-.58h-.58c.12.23.23.46.35.69l.81,2.43h.23l.81-2.43c.12-.23.23-.46.35-.69h-.58c0,.12,0,.35-.12.58l-.58,1.73-.58-1.73Z"/>
        <path class="cls-3" d="M43.84,59.45h.46c.12,0,.23,0,.35.12l.23-.46h-1.73c0,.12,0,.23.12.35v2.31c0,.12,0,.23-.12.35h1.62l.12-.58c-.23.12-.58.23-.93.23h-.35v-1.04h.35c.12,0,.23,0,.35.12l.23-.46h-1.04v-.93h.35"/>
        <path class="cls-3" d="M45.92,59.45c.35,0,.58.23.58.58s-.23.58-.58.58h-.23v-1.16h.23M45.69,60.84l.58.93c.12.23.23.35.23.46h.81c-.12-.12-.35-.35-.46-.58l-.58-.69c.23,0,.35-.12.46-.35.12-.12.12-.35.12-.58,0-.35-.12-.58-.23-.69-.12-.12-.35-.23-.69-.23h-.69c0,.12.12.23.12.35v2.31c0,.12,0,.23-.12.35h.69c0-.12-.12-.23-.12-.35v-.93h-.12Z"/>
        <path class="cls-3" d="M47.54,62.11c.23.12.58.12.81.12s.46-.12.58-.23c.12-.12.23-.35.23-.58,0-.12,0-.23-.12-.35s-.12-.23-.23-.35l-.58-.46c-.12-.12-.23-.23-.23-.46,0-.12,0-.23.12-.23q.12-.12.23-.12c.23,0,.46.12.58.23v-.58c-.23-.12-.35-.12-.69-.12-.23,0-.46.12-.58.23-.12.12-.23.35-.23.58,0,.35.12.58.46.81l.46.46c.12.12.23.23.23.46,0,.12,0,.23-.12.23q-.12.12-.23.12c-.12,0-.23,0-.46-.12-.12,0-.23-.12-.35-.23v.58h.12Z"/>
        <path class="cls-3" d="M49.97,59.91v-.46c0-.12,0-.23.12-.35h-.69c0,.12.12.23.12.35v2.31c0,.12,0,.23-.12.35h.69c0-.12-.12-.23-.12-.35v-1.85"/>
        <path class="cls-3" d="M51.82,59.45h.46c.12,0,.23,0,.35.12l.12-.46h-2.08l-.12.46c.12,0,.12-.12.35-.12h.58v2.31c0,.12,0,.23-.12.35h.69c0-.12,0-.23-.12-.35v-2.31"/>
        <path class="cls-3" d="M54.25,62.23c0-.12-.12-.23-.12-.35v-1.04l.58-1.04c.12-.35.35-.46.46-.58h-.69v.23q0,.12-.12.23l-.35.81-.35-.81c0-.12-.12-.12-.12-.23v-.23h-.69c.12.12.23.35.46.58l.58,1.04v1.04c0,.12,0,.23-.12.35h.46Z"/>
        <path class="cls-3" d="M55.63,58.76c.12.23.23.58.35.93s.12.69.12,1.04,0,.69-.12,1.04c-.12.35-.23.58-.35.93h.35c.35-.58.58-1.16.58-1.97,0-.35,0-.69-.12-1.04-.12-.35-.23-.58-.46-.93h-.35Z"/>
      </g>
    </g>
    <g>
      <g>
        <path class="cls-2" d="M29.73,36.67c-4.28-2.31-7.52-4.4-9.6-7.17-2.08-2.78-2.89-6.13-2.89-11.33V.12h26.02v18.04c0,5.2-.81,8.56-2.89,11.33s-5.32,4.97-9.6,7.17l-.46.23-.58-.23Z"/>
        <g>
          <path class="cls-4" d="M42.68,3.12v1.39l-15.04,11.45-.93-.69,15.96-12.14ZM42.68,5.09l-14.69,11.1.93.69,13.76-10.41v-1.39ZM25.45,14.23l.93.69L42.68,2.54v-1.39l-17.23,13.07ZM17.7.58v7.87l7.29,5.55L42.68.58h-24.98ZM42.68,7.06l-13.42,10.18.93.69,12.49-9.48v-1.39Z"/>
          <path class="cls-1" d="M17.7,12.26v-1.39l12.26,9.25v1.39l-12.26-9.25ZM17.7,10.41l12.26,9.25v-1.39l-12.26-9.25s0,1.39,0,1.39ZM29.96,23.48v-1.39l-12.26-9.25v1.39l12.26,9.25ZM29.96,24.17l-12.26-9.25v1.39l12.26,9.25v-1.39ZM29.96,26.14l-12.26-9.25v1.27c0,10.06,3.35,13.42,12.26,18.16v-10.18Z"/>
          <path class="cls-5" d="M42.68,9.02v9.14c0,7.17-1.73,10.99-6.01,14.23V13.53l6.01-4.51ZM30.42,18.27v17.93h0c.35-.23.69-.35,1.04-.58v-18.16l-1.04.81ZM32.04,17.12v18.27c.35-.23.69-.46,1.04-.58v-18.51l-1.04.81ZM33.54,15.85v18.51c.35-.23.69-.46,1.04-.69V15.04l-1.04.81ZM35.16,14.69v18.74c.35-.23.69-.46,1.04-.69V13.88l-1.04.81Z"/>
        </g>
      </g>
      <g>
        <path class="cls-3" d="M12.72,40.25c-1.27.12-2.54.23-3.7.35h0l1.85-2.43-2.54-1.97c3.35-.58,7.52-.69,10.53-.58-1.97.23-4.05.69-4.05.69h0l-2.08,3.93ZM30.19,45.11c8.21,0,13.76-1.97,17.7-4.05l-2.43-4.51c-1.5.69-3.35,1.5-5.55,2.08-2.89.81-6.25,1.27-9.6,1.27s-6.71-.58-9.6-1.27c-2.2-.58-4.16-1.27-5.55-2.08l-2.43,4.51c3.7,2.08,9.37,4.05,17.47,4.05ZM47.65,40.25c1.27.12,2.54.23,3.7.35h0l-1.85-2.43,2.54-1.97c-3.35-.58-7.52-.69-10.53-.58,1.97.23,4.05.69,4.05.69h0l2.08,3.93Z"/>
        <path class="cls-2" d="M17.58,41.64l-.23-.58h0l-.35-.23-.23.58-.46-.12.69-1.85.81.35c.46.23.69.58.58.93-.12.23-.35.46-.58.46l.23.81-.46-.35ZM17.7,40.02l-.35-.12-.23.69.35.12c.23.12.46,0,.46-.23.12-.23,0-.35-.23-.46ZM19.78,41.87l-.93-.23-.23.35-.46-.12,1.39-1.73.46.12.35,2.2-.46-.12-.12-.46ZM19.78,41.52l-.12-.81-.46.69.58.12ZM22.55,42.33c-.12.35-.35.46-.93.35l-1.04-.23.35-1.97,1.04.35c.46.12.69.35.69.69,0,.23-.12.35-.35.35.12,0,.23.23.23.46ZM22.09,42.22c0-.12-.12-.23-.35-.35l-.58-.12-.12.46.58.12c.23.12.46.12.46-.12ZM21.4,41.06l-.12.46.46.12c.23,0,.35,0,.35-.12s-.12-.23-.35-.35l-.35-.12ZM24.75,42.68c0,.35-.35.46-.81.46l-1.04-.12.23-1.97.93.12c.46.12.69.35.69.58s-.12.35-.35.35c.23.12.35.35.35.58ZM24.29,42.56c0-.12-.12-.23-.35-.35l-.58-.12-.12.46.58.12c.23.12.46.12.46-.12ZM23.48,41.41l-.12.46.46.12c.23,0,.35,0,.35-.23,0-.12-.12-.23-.35-.23l-.35-.12ZM25.21,41.29h.46l-.23,1.97h-.46l.23-1.97ZM28.45,43.14v.35l-1.73-.12v-.35l1.16-1.27-1.04-.12v-.35l1.62.12v.35l-1.16,1.27,1.16.12ZM28.8,41.52h.46l-.12,1.97h-.46l.12-1.97ZM29.61,41.52h.93c.69,0,1.16.35,1.16,1.04,0,.58-.46,1.04-1.04,1.04h-.93l-.12-2.08ZM30.54,43.14c.35,0,.69-.23.69-.58s-.23-.58-.69-.58h-.46v1.27l.46-.12ZM33.77,41.52l.12,1.97h-.35l-1.04-1.16v1.16h-.46l-.12-1.97h.35l1.04,1.16v-1.16h.46ZM34.12,41.41h.46l.12,1.97h-.46l-.12-1.97ZM36.55,41.18l.46-.12.23,1.97-.35.12-.35-1.97ZM37.47,41.06l.46-.12.23,1.62,1.04-.12.12.35-1.39.23-.46-1.97ZM41.41,42.33l-.23-1.16-.35,1.04h-.23l-.81-.81.23,1.16-.46.12-.46-1.85.35-.12,1.04,1.04.46-1.39.35-.12.46,1.97-.35.12ZM43.49,41.18l-.93.23v.46l-.46.12.23-2.2.46-.12,1.5,1.62-.46.12-.35-.23ZM43.26,40.94l-.58-.58-.12.81.69-.23ZM35.86,41.29l-.12.81h.23l.23-.81h-.35Z"/>
      </g>
    </g>
  </g>
  <rect class="cls-3" x="72.29" width=".46" height="63.04"/>
  <g>
    <g>
      <path class="cls-3" d="M113,6.59l-10.41,15.73v7.29c0,1.27.12,2.2.35,2.78.23.69.93,1.39,1.85,2.2h-8.21c.93-.58,1.39-1.39,1.62-2.43.12-.46.12-1.5.12-3.01v-6.82l-7.29-11.8c-.69-1.16-1.27-1.97-1.73-2.43s-1.16-.93-1.97-1.5l4.86-.12c.69,0,1.04.12,1.27.23.23.23.58.81,1.16,1.73l6.36,10.41,5.32-8.1c.58-.81.81-1.5.81-2.08,0-.81-.46-1.62-1.5-2.08,0,0,7.4,0,7.4,0Z"/>
      <path class="cls-3" d="M134.98,29.03l-1.97,5.55h-17.81c.93-.46,1.5-1.27,1.73-2.43.12-.46.12-1.5.12-3.12V12.03c0-1.5,0-2.54-.12-3.01-.23-1.16-.81-1.85-1.73-2.43h14.11c.58,0,1.16-.12,1.62-.23v4.97c-.69-.69-1.5-1.16-2.43-1.39-.58-.23-1.5-.23-2.78-.23-1.73,0-3.24.12-4.4.23v7.98h5.67c.58,0,1.04-.12,1.5-.23v4.51c-.58-.69-1.73-1.16-3.35-1.16h-3.7v10.06c1.85.35,3.59.46,5.2.46,3.35-.12,6.13-.93,8.33-2.54Z"/>
      <path class="cls-3" d="M165.4,6.59c-.93.58-1.5,1.16-1.85,1.85s-.46,1.73-.46,3.12v24.29c-2.08-.69-4.05-2.2-5.78-4.51l-14.92-18.85v17c0,1.39.12,2.43.46,3.12s.93,1.27,1.73,1.85h-7.52c.93-.58,1.5-1.16,1.85-1.85.35-.69.46-1.73.46-3.12V11.57c0-1.39-.12-2.43-.46-3.12s-.93-1.27-1.73-1.85h6.25c0,.12.35.69,1.04,1.62l15.73,20.01V11.57c0-1.39-.12-2.43-.46-3.12-.35-.69-.93-1.27-1.73-1.85h7.4Z"/>
      <path class="cls-3" d="M188.76,29.03l-1.97,5.55h-17.7c.93-.46,1.5-1.27,1.73-2.43.12-.46.12-1.5.12-3.12V12.03c0-1.5,0-2.54-.12-3.01-.23-1.16-.81-1.85-1.73-2.43h14.11c.58,0,1.16-.12,1.62-.23v4.97c-.69-.69-1.5-1.16-2.43-1.39-.58-.23-1.5-.23-2.78-.23-1.73,0-3.24.12-4.4.23v7.98h5.67c.58,0,1.04-.12,1.5-.23v4.51c-.58-.69-1.73-1.16-3.35-1.16h-3.82v10.06c1.85.35,3.59.46,5.2.46,3.47-.12,6.13-.93,8.33-2.54Z"/>
      <path class="cls-3" d="M211.2,14c0,2.2-.93,4.05-2.78,5.67-1.85,1.5-4.05,2.31-6.59,2.31-1.04,0-2.08-.23-3.01-.58,2.43-.35,4.16-.93,5.44-2.08,1.5-1.27,2.2-2.78,2.2-4.63,0-1.62-.58-2.89-1.62-3.82-1.16-.93-2.54-1.39-4.51-1.39-1.04,0-1.97.12-3.01.35v19.66c0,1.39.12,2.43.46,3.12.35.69.93,1.27,1.73,1.85h-8.33c.93-.46,1.5-1.27,1.73-2.43.12-.46.12-1.5.12-3.01V12.03c0-1.5,0-2.54-.12-3.01-.23-1.16-.81-1.85-1.73-2.43h10.06c2.31,0,4.16.35,5.55,1.04,1.27.69,2.31,1.5,3.12,2.66.93,1.16,1.27,2.43,1.27,3.7Z"/>
      <path class="cls-3" d="M245.09,20.36c0,4.16-1.5,7.63-4.51,10.53-3.01,2.89-6.71,4.28-11.1,4.28s-7.98-1.39-10.99-4.28c-3.01-2.78-4.51-6.25-4.51-10.29s1.5-7.75,4.63-10.53c3.12-2.89,6.94-4.28,11.45-4.28s7.98,1.39,10.87,4.16c1.39,1.27,2.43,2.89,3.12,4.74.69,1.97,1.04,3.82,1.04,5.67ZM240.35,21.05c0-3.24-.93-6.13-2.89-8.44-2.08-2.43-4.74-3.7-7.98-3.7s-5.67,1.04-7.63,3.12c-1.97,2.08-3.01,4.74-3.01,7.98,0,3.47,1.16,6.48,3.47,9.02,1.85,2.08,4.4,3.12,7.4,3.12s5.78-1.04,7.75-3.12c1.85-1.97,2.89-4.63,2.89-7.98Z"/>
      <path class="cls-3" d="M269.96,6.59l-10.41,15.73v7.29c0,1.27.12,2.2.35,2.78.23.69.93,1.39,1.85,2.2h-8.21c.93-.58,1.39-1.39,1.62-2.43.12-.46.12-1.5.12-3.01v-6.82l-7.29-11.8c-.69-1.16-1.27-1.97-1.73-2.43s-1.16-.93-1.97-1.5l4.86-.12c.69,0,1.04.12,1.27.23.23.23.69.81,1.27,1.73l6.36,10.41,5.32-8.1c.58-.81.81-1.5.81-2.08,0-.81-.46-1.62-1.5-2.08,0,0,7.29,0,7.29,0Z"/>
      <path class="cls-3" d="M298.06,34.58h-8.91c1.04-.58,1.5-1.16,1.5-1.73,0-.35-.23-1.16-.69-2.43l-2.54-6.48h-10.76l-2.43,6.48c-.35.81-.46,1.62-.46,2.2,0,.69.46,1.39,1.5,1.85h-7.75c.93-.58,1.62-1.27,2.08-1.97.46-.69,1.04-1.97,1.85-3.82l7.52-18.62c.35-.81.46-1.5.46-1.97,0-.69-.46-1.27-1.27-1.62h6.71l8.91,22.21c.69,1.73,1.27,2.89,1.85,3.7.69.93,1.39,1.62,2.43,2.2ZM286.38,21.28l-4.28-11.1-4.4,11.1h8.67Z"/>
    </g>
    <g>
      <path class="cls-3" d="M88.94,49.5c0-1.5.23-2.89.58-4.16s.93-2.54,1.62-3.59h1.27c-.69,1.04-1.16,2.2-1.5,3.59-.35,1.39-.46,2.78-.46,4.16,0,1.5.12,2.89.46,4.16s.81,2.54,1.5,3.59h-1.27c-1.5-2.2-2.2-4.74-2.2-7.75"/>
      <path class="cls-3" d="M97.74,44.88h.81c1.27,0,2.2.46,2.89,1.27.69.81,1.04,1.97,1.04,3.47s-.35,2.66-1.04,3.47-1.62,1.27-2.89,1.27h-.81v-9.48ZM95.54,43.37c.12.35.23.81.35,1.5.12.58.12,1.27.12,1.85v5.67c0,.69-.12,1.27-.12,1.97-.12.58-.23,1.16-.35,1.39h3.01c1.73,0,3.01-.58,4.05-1.62,1.16-1.16,1.62-2.66,1.62-4.63s-.58-3.47-1.62-4.51-2.43-1.62-4.05-1.62c0,0-3.01,0-3.01,0Z"/>
      <path class="cls-3" d="M108.72,44.88c.58,0,1.16,0,1.73.12s1.04.23,1.27.35l1.04-1.97h-6.94c.12.35.23.81.35,1.5.23.58.23,1.27.23,1.85v5.67c0,.69,0,1.27-.12,1.97-.12.58-.23,1.16-.35,1.39h6.25l.58-2.2c-.93.46-2.08.69-3.47.69h-1.27v-4.28c.46,0,1.04,0,1.62.12s1.04.23,1.27.35l1.04-1.97h-3.93v-3.7h.69"/>
      <path class="cls-3" d="M116.94,44.88c.58,0,1.16,0,1.73.12s1.04.23,1.27.35l1.04-1.97h-6.94c.12.35.23.81.35,1.5.12.69.12,1.27.12,1.85v5.67c0,.69,0,1.27-.12,1.97-.12.58-.23,1.16-.35,1.39h6.25l.58-2.2c-.93.46-2.08.69-3.47.69h-1.27v-4.28c.46,0,1.04,0,1.62.12s.93.23,1.27.35l1.04-1.97h-3.93v-3.7h.81"/>
      <path class="cls-3" d="M128.27,52.86l3.7-5.67v5.2c0,.58,0,1.27-.12,1.85s-.23,1.16-.35,1.5h2.54c-.12-.35-.23-.81-.35-1.39-.12-.58-.12-1.27-.12-1.97v-7.75c.46-.58.81-.93,1.27-1.27h-2.89c0,.23-.12.58-.35.93-.12.35-.35.69-.58,1.04l-2.89,4.4-2.89-4.4c-.23-.35-.35-.69-.58-1.04-.12-.35-.23-.69-.35-.93h-2.89c.46.35.81.81,1.27,1.27v7.75c0,.69-.12,1.27-.12,1.97-.12.58-.23,1.16-.35,1.39h2.54c-.12-.35-.23-.81-.35-1.5-.12-.69-.12-1.27-.12-1.85v-5.2l3.93,5.67Z"/>
      <path class="cls-3" d="M138.91,44.88c.58,0,1.16,0,1.73.12s1.04.23,1.27.35l1.04-1.97h-6.82c.12.35.23.81.35,1.5.12.69.12,1.27.12,1.85v5.67c0,.69,0,1.27-.12,1.97-.12.58-.23,1.16-.35,1.39h6.25l.58-2.2c-.93.46-2.08.69-3.47.69h-1.27v-4.28c.46,0,1.04,0,1.62.12s1.04.23,1.27.35l1.04-1.97h-3.93v-3.7h.69"/>
      <path class="cls-3" d="M146.55,44.88h.81c1.27,0,2.2.46,2.89,1.27.69.81,1.04,1.97,1.04,3.47s-.35,2.66-1.04,3.47c-.69.81-1.73,1.27-2.89,1.27h-.81v-9.48ZM144.46,43.37c.12.35.23.81.35,1.5.12.69.12,1.27.12,1.85v5.67c0,.69,0,1.27-.12,1.97-.12.58-.23,1.16-.35,1.39h2.89c1.73,0,3.01-.58,4.05-1.62,1.04-1.16,1.62-2.66,1.62-4.63s-.58-3.47-1.62-4.51-2.43-1.62-4.05-1.62c0,0-2.89,0-2.89,0Z"/>
      <path class="cls-3" d="M162.62,44.88c.58,0,1.16,0,1.73.12s1.04.23,1.27.35l.58-1.97h-8.33l-.58,1.97c.23-.12.69-.23,1.27-.35s1.04-.12,1.5-.12h.93v7.52c0,.69,0,1.27-.12,1.97-.12.58-.23,1.16-.35,1.39h2.54c-.12-.35-.23-.81-.35-1.39s-.12-1.27-.12-1.97v-7.52"/>
      <path class="cls-3" d="M172.22,44.65c1.27,0,2.2.46,2.89,1.27.69.93,1.04,2.08,1.04,3.59s-.35,2.66-1.04,3.59c-.69.93-1.73,1.27-2.89,1.27s-2.2-.46-2.89-1.27c-.69-.93-1.04-2.08-1.04-3.59s.35-2.66,1.04-3.59c.69-.81,1.73-1.27,2.89-1.27M170.02,43.6c-.69.23-1.27.69-1.85,1.27-1.04,1.16-1.62,2.78-1.62,4.63,0,1.97.58,3.47,1.62,4.63.46.58,1.16.93,1.85,1.27s1.5.46,2.31.46,1.62-.12,2.31-.46c.69-.35,1.27-.69,1.85-1.27,1.04-1.16,1.62-2.78,1.62-4.63,0-1.97-.58-3.47-1.62-4.63-.46-.58-1.16-.93-1.85-1.27s-1.5-.46-2.31-.46c-.93.12-1.62.23-2.31.46"/>
      <path class="cls-3" d="M186.1,44.88c1.27,0,1.97.58,1.97,1.85,0,.58-.12,1.04-.46,1.39-.35.35-.81.46-1.5.46h-.81v-3.7h.81M188.76,44.18c-.58-.58-1.5-.81-2.78-.81h-2.89c.12.35.23.81.35,1.5s.12,1.27.12,1.85v5.67c0,.69,0,1.27-.12,1.97-.12.58-.23,1.16-.35,1.39h3.01c1.16,0,2.2-.35,2.89-.93.69-.69,1.04-1.5,1.04-2.66,0-.69-.23-1.39-.58-1.85-.35-.58-.93-.81-1.5-1.04.58-.23,1.04-.46,1.27-1.04.35-.46.46-1.04.46-1.62,0-1.04-.23-1.85-.93-2.43M187.84,53.67c-.35.35-.93.58-1.62.58h-.93v-4.28h.93c.69,0,1.27.23,1.62.58.35.35.58.93.58,1.5,0,.81-.23,1.27-.58,1.62"/>
      <path class="cls-3" d="M194.43,44.88c.58,0,1.16,0,1.73.12s1.04.23,1.27.35l1.04-1.97h-6.94c.12.35.23.81.35,1.5s.12,1.27.12,1.85v5.67c0,.69,0,1.27-.12,1.97-.12.58-.23,1.16-.35,1.39h6.25l.58-2.2c-.93.46-2.08.69-3.47.69h-1.27v-4.28c.46,0,1.04,0,1.62.12s1.04.23,1.27.35l1.04-1.97h-3.93v-3.7h.81"/>
      <path class="cls-3" d="M212.24,52.28c0,.58-.23,1.04-.81,1.5-.58.46-1.16.58-1.85.58-.93,0-1.62-.23-2.08-.81-.46-.58-.69-1.27-.69-2.2v-4.74c0-.69,0-1.27.12-1.97.12-.58.23-1.16.35-1.39h-2.54c.12.35.23.81.35,1.5s.12,1.27.12,1.85v4.74c0,1.39.35,2.43,1.04,3.24.69.81,1.62,1.16,2.78,1.16.69,0,1.27-.12,1.97-.35.58-.23,1.04-.58,1.39-1.04v1.27h2.08c-.12-.35-.23-.81-.35-1.5s-.12-1.27-.12-1.85v-5.67c0-.69,0-1.27.12-1.97.12-.58.23-1.16.35-1.39h-2.54c.12.35.23.81.35,1.5s.12,1.27.12,1.85v5.67"/>
      <path class="cls-3" d="M223.35,53.9c.23.23.35.58.58.93.12.35.35.69.35.93h2.08c-.12-.35-.23-.81-.35-1.39s-.12-1.27-.12-1.97v-5.67c0-.69,0-1.27.12-1.97.12-.58.23-1.16.35-1.39h-2.54c.12.35.23.81.35,1.5s.12,1.27.12,1.85v5.44l-4.86-6.82c-.23-.35-.46-.58-.58-1.04-.12-.35-.23-.69-.35-.93h-2.89c.46.35.81.81,1.27,1.27v7.75c0,.69-.12,1.27-.12,1.97-.12.58-.23,1.16-.35,1.39h2.54c-.12-.35-.23-.81-.35-1.5s-.12-1.27-.12-1.97v-5.44l4.86,7.06Z"/>
      <path class="cls-3" d="M230.52,46.73c0-.69,0-1.27.12-1.97.12-.58.12-1.16.35-1.39h-2.54c.12.35.23.81.35,1.5s.12,1.27.12,1.85v5.67c0,.69,0,1.27-.12,1.97-.12.58-.23,1.16-.35,1.39h2.54c-.12-.35-.23-.81-.35-1.5s-.12-1.27-.12-1.85v-5.67"/>
      <path class="cls-3" d="M235.49,45.69c-.35-.93-.46-1.62-.46-2.31h-2.54c.58.81,1.04,1.73,1.5,2.89l3.35,9.48h1.04l3.35-9.48c.35-1.16.93-2.08,1.5-2.89h-2.66c0,.58-.12,1.39-.46,2.31l-2.31,6.82-2.31-6.82Z"/>
      <path class="cls-3" d="M247.4,44.88c.58,0,1.16,0,1.73.12s1.04.23,1.27.35l1.04-1.97h-6.94c.12.35.23.81.35,1.5s.12,1.27.12,1.85v5.67c0,.69,0,1.27-.12,1.97-.12.58-.23,1.16-.35,1.39h6.25l.58-2.2c-.93.46-2.08.69-3.47.69h-1.27v-4.28c.46,0,1.04,0,1.62.12s1.04.23,1.27.35l1.04-1.97h-3.93v-3.7h.81"/>
      <path class="cls-3" d="M255.85,44.88c1.39,0,2.08.81,2.08,2.31s-.69,2.2-2.08,2.2h-.93v-4.51h.93M254.92,50.08l2.31,3.82c.46.69.69,1.39.69,1.85h3.01c-.58-.35-1.27-1.27-2.08-2.43l-1.73-2.66c.69-.23,1.27-.58,1.73-1.27.46-.58.69-1.39.69-2.31,0-1.16-.35-2.08-1.04-2.78-.69-.69-1.62-1.04-2.78-1.04h-3.01c.12.35.23.81.35,1.5s.12,1.27.12,1.85v5.78c0,.69,0,1.27-.12,1.97-.12.58-.23,1.16-.35,1.39h2.54c-.12-.35-.23-.81-.35-1.39s-.12-1.27-.12-1.97v-2.31h.12Z"/>
      <path class="cls-3" d="M262.09,55.4c1.04.35,2.08.46,3.12.46.93,0,1.73-.35,2.31-.93s.81-1.39.81-2.43c0-.46-.12-1.04-.35-1.5-.23-.46-.58-.93-.93-1.27l-2.43-1.97c-.69-.58-1.04-1.16-1.04-1.73,0-.46.12-.69.46-1.04.23-.23.69-.35,1.16-.35,1.04,0,1.73.35,2.31,1.04v-2.08c-.69-.23-1.62-.35-2.54-.35s-1.62.23-2.2.81-.93,1.27-.93,2.08c0,1.27.58,2.43,1.73,3.35l2.08,1.73c.58.58.93,1.16.93,1.85,0,.35-.12.69-.46,1.04-.35.35-.69.46-1.16.46-.58,0-1.04-.12-1.62-.35s-.93-.58-1.27-.93v2.08Z"/>
      <path class="cls-3" d="M271.92,46.73c0-.69,0-1.27.12-1.97.12-.58.23-1.16.35-1.39h-2.54c.12.35.23.81.35,1.5s.12,1.27.12,1.85v5.67c0,.69,0,1.27-.12,1.97-.12.58-.23,1.16-.35,1.39h2.54c-.12-.35-.23-.81-.35-1.5s-.12-1.27-.12-1.85v-5.67"/>
      <path class="cls-3" d="M278.98,44.88c.58,0,1.16,0,1.73.12s1.04.23,1.27.35l.58-1.97h-8.33l-.69,1.97c.23-.12.69-.23,1.16-.35.58-.12,1.04-.12,1.5-.12h.93v7.52c0,.69,0,1.27-.12,1.97-.12.58-.23,1.16-.35,1.39h2.54c-.12-.35-.23-.81-.35-1.39s-.12-1.27-.12-1.97v-7.52"/>
      <path class="cls-3" d="M288.81,55.75c-.12-.35-.23-.81-.35-1.5s-.12-1.27-.12-1.85v-2.2l2.31-4.28c.69-1.16,1.16-2.08,1.62-2.43h-2.66c0,.23,0,.46-.12.81s-.23.69-.35.93l-1.5,3.01-1.62-3.01c-.12-.35-.23-.58-.35-.93s-.12-.58-.12-.81h-2.66c.46.46,1.04,1.27,1.62,2.43l2.31,4.28v2.2c0,.69,0,1.27-.12,1.97-.12.58-.23,1.16-.35,1.39h2.43Z"/>
      <path class="cls-3" d="M294.48,41.87c.69,1.04,1.16,2.2,1.5,3.59.35,1.39.58,2.78.58,4.16,0,1.5-.23,2.89-.58,4.16-.35,1.27-.81,2.54-1.5,3.59h1.27c1.5-2.2,2.2-4.74,2.2-7.75,0-1.5-.23-2.89-.58-4.16s-.93-2.54-1.62-3.59c0,0-1.27,0-1.27,0Z"/>
    </g>
  </g>
</svg>